<svg width="48" height="43" viewBox="0 0 48 43" fill="none" xmlns="http://www.w3.org/2000/svg">
<g clip-path="url(#clip0_22_112)">
<path d="M36.3479 40.4641L35.3175 41.662C35.6177 41.9192 36.0034 42.0545 36.3985 42.0413L36.3479 40.4641ZM32.9786 35.053C32.7187 34.724 32.3388 34.5117 31.9224 34.4628C31.506 34.4139 31.0872 34.5324 30.7582 34.7923C30.4292 35.0521 30.2169 35.432 30.168 35.8484C30.1191 36.2649 30.2376 36.6836 30.4975 37.0126L32.9786 35.053ZM34.2365 33.7571L33.6866 32.2779C33.6654 32.285 33.6443 32.2924 33.6234 32.3001L34.2365 33.7571ZM28.7433 35.3881L28.4778 33.8267L28.4525 33.8298L28.7433 35.3849V35.3881ZM18.9325 35.3501L18.6323 36.8989L18.6417 36.902L18.9325 35.3501ZM10.5978 32.4328L9.71913 33.7445C9.75294 33.7681 9.78773 33.7902 9.82343 33.8109L10.5978 32.4328ZM10.2564 32.2432L11.132 30.9283C11.0772 30.8921 11.0202 30.8594 10.9613 30.8303L10.2564 32.2432ZM10.1047 32.1294L11.2205 31.0105C11.1172 30.9075 11.0002 30.8192 10.8728 30.7482L10.1047 32.1294ZM16.9128 36.9336C17.1727 36.6046 17.2912 36.1858 17.2423 35.7694C17.1934 35.353 16.9811 34.9731 16.6521 34.7132C16.3231 34.4534 15.9043 34.3349 15.4879 34.3838C15.0715 34.4327 14.6916 34.645 14.4317 34.974L16.9128 36.9336ZM11.0624 40.4641L11.0118 42.0445C11.4144 42.0573 11.8067 41.916 12.1086 41.6494L11.0624 40.4641ZM1.58037 33.3431H2.34799e-05C-0.000438001 33.4277 0.00590377 33.5123 0.0189876 33.5959L1.58037 33.3431ZM7.03571 6.51521L6.0875 5.25094C5.8462 5.4324 5.66194 5.67918 5.55651 5.96209L7.03571 6.51521ZM17.6809 2.53591L19.2549 2.38736C19.2186 2.00147 19.0417 1.64239 18.7579 1.37841C18.4741 1.11442 18.1032 0.963935 17.7157 0.955565L17.6809 2.53591ZM16.4862 6.66376C16.526 7.08122 16.73 7.46576 17.0533 7.73279C17.3767 7.99982 17.7928 8.12747 18.2103 8.08765C18.6278 8.04783 19.0123 7.84381 19.2793 7.52047C19.5464 7.19713 19.674 6.78095 19.6342 6.3635L16.4862 6.66376ZM27.6307 6.46464C27.5775 6.88042 27.6916 7.30031 27.948 7.63195C28.2043 7.96359 28.5819 8.17981 28.9977 8.23304C29.4135 8.28627 29.8334 8.17215 30.165 7.91579C30.4967 7.65943 30.7129 7.28182 30.7661 6.86604L27.6307 6.46464ZM29.7294 2.53591L29.6946 0.955565C29.3165 0.963813 28.9539 1.10741 28.6726 1.36027C28.3913 1.61313 28.21 1.95849 28.1617 2.33362L29.7294 2.53591ZM40.3746 6.51521L41.8538 5.96209C41.7484 5.67918 41.5641 5.4324 41.3228 5.25094L40.3746 6.51521ZM45.8299 33.3431L47.3913 33.5959C47.4044 33.5123 47.4108 33.4277 47.4103 33.3431H45.8299ZM20.4844 25.6089L18.9041 25.5836V25.6089H20.4844ZM36.3479 40.4641L37.3783 39.2662L37.3719 39.2599C37.3241 39.2216 37.2778 39.1815 37.2329 39.1398C36.6597 38.6436 36.0949 38.1378 35.5388 37.6227C34.5115 36.6808 33.4527 35.6567 32.9786 35.053L30.4975 37.0126C31.1549 37.8471 32.4034 39.0355 33.399 39.9521C34.0161 40.519 34.6409 41.0774 35.2733 41.6272L35.3049 41.6525L35.3143 41.6589L36.3479 40.4641ZM37.7259 30.2045C36.272 31.1622 34.9003 31.826 33.6866 32.2779L34.7865 35.2395C36.4314 34.6204 38.0007 33.8166 39.4643 32.8437L37.7259 30.2045ZM33.6265 32.3001C31.9748 33.0064 30.2472 33.5197 28.4778 33.8298L29.0088 36.9463C31.0158 36.5952 32.9757 36.014 34.8497 35.2142L33.6265 32.3001ZM28.4525 33.833C25.4005 34.3943 22.2706 34.3815 19.2233 33.7951L18.6417 36.902C22.0734 37.5603 25.5977 37.5732 29.0341 36.94L28.4525 33.833ZM19.2328 33.7982C17.4246 33.4443 15.6525 32.9259 13.9386 32.2495L12.7881 35.1921C14.4064 35.8242 16.3597 36.4627 18.6323 36.8989L19.2328 33.7982ZM13.9386 32.2495C13.0558 31.9105 12.1972 31.5114 11.369 31.0548L9.82343 33.8109C10.8538 34.3893 11.8716 34.8349 12.7881 35.1921L13.9386 32.2495ZM11.4733 31.118C11.3647 31.045 11.2505 30.9837 11.132 30.9283C11.0687 30.8967 11.0972 30.903 11.132 30.9283L9.37777 33.558C9.48682 33.6303 9.6009 33.6948 9.71913 33.7508C9.7855 33.7824 9.75705 33.7729 9.71913 33.7445L11.4765 31.1211L11.4733 31.118ZM10.9613 30.8303C11.0565 30.878 11.1439 30.9398 11.2205 31.0137L8.98585 33.2483C9.05854 33.321 9.24186 33.5011 9.54845 33.6592L10.9613 30.8303ZM10.8728 30.7482C10.5717 30.5815 10.2765 30.4044 9.98778 30.2172L9.95302 30.1919C9.95196 30.1919 9.95407 30.1919 9.95302 30.1919L9.04274 31.4878L8.13878 32.7805L8.14194 32.7837L8.14827 32.79L8.17039 32.8026L8.23676 32.8469L8.47382 33.0017C8.6761 33.1282 8.96688 33.3052 9.33668 33.5106L10.8728 30.7482ZM14.4317 34.9772C13.9513 35.5872 12.8861 36.6365 11.8621 37.5974C11.3015 38.1214 10.7346 38.6388 10.1616 39.1493L10.0542 39.2472L10.0226 39.2725L10.0194 39.2789H10.0162L11.0624 40.4641L12.1086 41.6494L12.1118 41.6462L12.1212 41.6399L12.1529 41.6114L12.2666 41.5103C12.8566 40.9809 13.4414 40.4457 14.0208 39.9047C15.0164 38.9691 16.2586 37.7649 16.9128 36.9336L14.4317 34.974V34.9772ZM11.113 38.8838C7.42763 38.7668 5.49329 37.2371 4.44394 35.8495C3.86027 35.0746 3.43106 34.1947 3.17967 33.2578C3.16444 33.1991 3.15073 33.1401 3.13858 33.0808V33.0871L1.58037 33.3431C0.0189877 33.5959 0.0189876 33.5928 0.0221483 33.5959V33.6149C0.045263 33.75 0.0747961 33.884 0.110647 34.0163C0.464911 35.3688 1.08014 36.639 1.92172 37.7554C3.51786 39.8636 6.32455 41.8959 11.0118 42.0445L11.113 38.8838ZM3.16071 33.3431C3.16071 27.4421 4.48819 20.89 5.83781 15.757C6.55389 13.0385 7.37203 10.348 8.2905 7.69098C8.35991 7.4946 8.4305 7.29863 8.50226 7.1031L8.5149 7.07149L7.03571 6.51521L5.55334 5.96209L5.55018 5.97473L5.53754 6.0095C5.4593 6.21935 5.38344 6.43007 5.30997 6.64164C4.36296 9.37868 3.51951 12.1505 2.78143 14.9511C1.40021 20.182 2.34799e-05 27.0407 2.34799e-05 33.3431H3.16071ZM7.98391 7.77948C10.5125 5.88307 12.9683 4.96647 14.7794 4.52398C15.6712 4.30655 16.5811 4.17113 17.4976 4.11941C17.5492 4.1175 17.6008 4.11645 17.6524 4.11625L17.6809 2.53591L17.7157 0.955565H17.6999C17.6704 0.955078 17.6409 0.955078 17.6114 0.955565H17.3964C17.1431 0.964763 16.8901 0.981628 16.6379 1.00614C15.759 1.09129 14.8875 1.24024 14.0303 1.45179C11.1536 2.16626 8.45155 3.45652 6.0875 5.24461L7.98391 7.77316V7.77948ZM16.1069 2.68446L16.4862 6.66376L19.6342 6.3635L19.2549 2.38736L16.1069 2.68446ZM30.7661 6.86604L31.2971 2.73819L28.1617 2.33362L27.6307 6.46464L30.7661 6.86604ZM29.7294 2.53591L29.761 4.11625H29.7579C29.8095 4.1137 29.8611 4.1137 29.9127 4.11625C30.0328 4.12257 30.2288 4.13205 30.4785 4.15734C30.9842 4.20159 31.7238 4.30589 32.6309 4.52714C35.0926 5.14098 37.4042 6.24736 39.4264 7.77948L41.3228 5.25094C38.9588 3.46277 36.2568 2.1725 33.38 1.45811C32.5229 1.24546 31.6514 1.09546 30.7724 1.0093C30.4183 0.976337 30.0629 0.95841 29.7073 0.955565H29.6946L29.7294 2.53591ZM40.3746 6.51521L38.8922 7.06517L38.8954 7.07465L38.908 7.1031L38.9491 7.22004L39.1166 7.69098C40.0361 10.3479 40.8553 13.0385 41.5725 15.757C42.9253 20.89 44.2496 27.4421 44.2496 33.3431H47.4103C47.4103 27.0407 46.0069 20.182 44.6289 14.9511C43.8906 12.1505 43.0471 9.37874 42.1003 6.64164C42.0412 6.47484 41.9811 6.30838 41.9202 6.14225L41.8728 6.0095L41.8601 5.97789L41.857 5.96525L40.3714 6.51521H40.3746ZM45.8299 33.3431L44.2717 33.0902V33.0808L44.2654 33.106L44.2338 33.2546C44.1959 33.3968 44.139 33.6118 44.041 33.8773C43.845 34.4146 43.5132 35.1289 42.9664 35.8495C41.917 37.2371 39.9827 38.7668 36.2973 38.8838L36.3985 42.0445C41.0858 41.8959 43.8893 39.8636 45.4886 37.7586C46.3305 36.6411 46.9457 35.3699 47.2997 34.0163C47.3307 33.8928 47.3581 33.7685 47.3818 33.6434L47.3882 33.6118V33.5991C47.3882 33.5959 47.3882 33.5928 45.8299 33.3431ZM16.6221 19.8248C13.4551 19.8248 11.1762 22.5652 11.1762 25.6089H14.3369C14.3369 24.0349 15.4652 22.9855 16.6221 22.9855V19.8248ZM11.1762 25.6089C11.1762 28.6653 13.5025 31.393 16.6221 31.393V28.2323C15.4937 28.2323 14.3369 27.1766 14.3369 25.6089H11.1762ZM16.6221 31.393C19.7827 31.393 22.0648 28.6558 22.0648 25.6089H18.9041C18.9041 27.1892 17.7757 28.2323 16.6221 28.2323V31.393ZM22.0616 25.6405C22.1122 22.5494 19.7638 19.8248 16.6221 19.8248L16.6189 22.9887C17.7947 22.9887 18.9262 24.057 18.9009 25.5868L22.0616 25.6405ZM30.4469 19.8248C27.2799 19.828 25.001 22.5683 25.001 25.6121H28.1617C28.1617 24.038 29.2901 22.9887 30.4469 22.9887V19.828V19.8248ZM25.001 25.6152C25.001 28.6716 27.3273 31.3993 30.4469 31.3993V28.2386C29.3185 28.2386 28.1617 27.1829 28.1617 25.6152H25.001ZM30.4469 31.3993C33.6076 31.3993 35.8896 28.6621 35.8896 25.6152H32.7289C32.7289 27.1956 31.6005 28.2386 30.4469 28.2386V31.3993ZM35.8896 25.6152C35.8896 22.5715 33.6107 19.828 30.4469 19.828V22.9887C31.6005 22.9887 32.7289 24.0412 32.7289 25.6152H35.8896ZM11.821 11.8283C16.3818 9.34086 20.0988 8.18089 23.7146 8.17773C27.3336 8.17773 31.0411 9.33138 35.5925 11.8252L37.1096 9.0564C32.299 6.41723 28.0543 5.01388 23.7146 5.01704C19.375 5.01704 15.1271 6.42355 10.3102 9.05324L11.821 11.8283Z" fill="white"/>
</g>
<defs>
<clipPath id="clip0_22_112">
<rect width="47.4103" height="43" fill="white"/>
</clipPath>
</defs>
</svg>
