<svg width="51" height="43" viewBox="0 0 51 43" fill="none" xmlns="http://www.w3.org/2000/svg">
<g clip-path="url(#clip0_22_114)">
<path d="M1.99268 8.21691C1.99268 6.80775 2.53975 5.45631 3.51354 4.45989C4.48733 3.46347 5.80808 2.90369 7.18523 2.90369H43.5331C44.9102 2.90369 46.231 3.46347 47.2048 4.45989C48.1786 5.45631 48.7256 6.80775 48.7256 8.21691V34.783C48.7256 36.1922 48.1786 37.5436 47.2048 38.54C46.231 39.5364 44.9102 40.0962 43.5331 40.0962H7.18523C5.80808 40.0962 4.48733 39.5364 3.51354 38.54C2.53975 37.5436 1.99268 36.1922 1.99268 34.783V8.21691Z" stroke="#F8F8F8" stroke-width="2.89817" stroke-linecap="round" stroke-linejoin="round"/>
<path d="M1.99268 8.21692L25.3592 24.1566L48.7256 8.21692" stroke="#F8F8F8" stroke-width="2.89817" stroke-linecap="round" stroke-linejoin="round"/>
</g>
<defs>
<clipPath id="clip0_22_114">
<rect width="50.7179" height="43" fill="white"/>
</clipPath>
</defs>
</svg>
