<svg width="43" height="43" viewBox="0 0 43 43" fill="none" xmlns="http://www.w3.org/2000/svg">
<path d="M9.82017 3.56906C9.66152 3.36497 9.46126 3.19698 9.23269 3.07624C9.00412 2.9555 8.75248 2.88477 8.49448 2.86876C8.23647 2.85274 7.97802 2.89181 7.73627 2.98336C7.49453 3.07491 7.27503 3.21685 7.09236 3.39975L4.31348 6.18131C3.01542 7.48206 2.53704 9.323 3.10411 10.9382C5.45766 17.6236 9.28615 23.6933 14.3056 28.6972C19.3095 33.7166 25.3793 37.5451 32.0646 39.8987C33.6798 40.4657 35.5207 39.9874 36.8215 38.6893L39.6004 35.9104C39.7833 35.7278 39.9252 35.5083 40.0167 35.2665C40.1083 35.0248 40.1474 34.7663 40.1313 34.5083C40.1153 34.2503 40.0446 33.9987 39.9239 33.7701C39.8031 33.5415 39.6351 33.3413 39.431 33.1826L33.231 28.3612C33.0129 28.1921 32.7594 28.0748 32.4893 28.018C32.2193 27.9612 31.9399 27.9664 31.6722 28.0334L25.7866 29.5034C25.001 29.6998 24.1779 29.6894 23.3975 29.4732C22.6171 29.257 21.906 28.8425 21.3334 28.2699L14.7329 21.6667C14.1599 21.0943 13.7448 20.3834 13.5281 19.603C13.3115 18.8225 13.3007 17.9993 13.4967 17.2135L14.9694 11.3279C15.0364 11.0602 15.0416 10.7808 14.9848 10.5108C14.928 10.2408 14.8107 9.98716 14.6415 9.76912L9.82017 3.56906ZM5.06329 1.37337C5.53359 0.902925 6.0986 0.537911 6.72078 0.302569C7.34297 0.0672266 8.0081 -0.0330583 8.67202 0.00837292C9.33594 0.0498042 9.98344 0.232004 10.5715 0.542873C11.1596 0.853742 11.6749 1.28617 12.083 1.81144L16.9044 8.00881C17.7886 9.14562 18.1004 10.6264 17.751 12.0239L16.2809 17.9096C16.2049 18.2144 16.209 18.5337 16.2928 18.8365C16.3767 19.1393 16.5373 19.4153 16.7593 19.6376L23.3625 26.2408C23.5851 26.4632 23.8615 26.6242 24.1648 26.708C24.4681 26.7918 24.788 26.7957 25.0932 26.7192L30.9762 25.2491C31.6658 25.0767 32.3856 25.0633 33.0812 25.21C33.7768 25.3566 34.43 25.6595 34.9913 26.0957L41.1887 30.9171C43.4166 32.6505 43.6209 35.9427 41.6267 37.9341L38.8479 40.713C36.8591 42.7017 33.8867 43.5752 31.1159 42.5996C24.0241 40.1043 17.5851 36.0444 12.2765 30.7209C6.95338 25.4131 2.89343 18.975 0.397795 11.8842C-0.57508 9.11606 0.298357 6.141 2.28711 4.15225L5.06598 1.37337H5.06329Z" fill="#F8F8F8"/>
</svg>
